<svg width="737" height="346" viewBox="0 0 737 346" fill="none" xmlns="http://www.w3.org/2000/svg">
<g clip-path="url(#clip0_10_6)">
<path d="M514.42 99.3C493.06 45.7 444.02 7.35 385.97 0.88C384.02 0.66 381.98 0.9 380.27 0H356.37C354.94 0.65 353.14 0.71 351.3 0.88C340.52 1.87 330.16 4.23 319.94 7.52C275.12 21.97 239.52 55.96 222.21 99.3C221.73 100.49 20.24 99.01 0 100.16C2.26 100.14 4.62 101.07 7.02 100.75C8.34 100.57 9.17 100.84 10.58 100.97C49.62 104.6 86.77 115.71 119 138.88C136.89 151.74 152.32 167.45 164.82 185.64C172.66 197.05 179.94 208.96 185.22 221.74C204.37 268.08 239.61 305.97 285.28 327.16C305.75 336.65 327.87 342.72 350.41 344.61C352.26 344.77 353.6 344.93 355.11 344.93V345.35H381.52V344.93C383.04 344.93 384.35 344.78 386.22 344.62C457.31 338.39 519.86 293.04 548.52 227.77C555.74 211.32 564.28 195.64 574.87 181.19C611.49 131.27 665.42 106.24 726.05 101C727.34 100.89 728.01 100.64 729.19 100.77C731.73 101.05 734.23 100.19 736.63 100.17C716.4 99.02 514.89 100.5 514.42 99.31V99.3Z" fill="#FEFFFF"/>
<path d="M303.751 249.824C299.043 249.803 296.415 252.763 294.935 255.059C293.455 257.354 292.371 263.95 294.806 264.637C302.668 265.977 310.187 265.001 317.48 264.959C318.253 260.947 316.933 257.644 318.188 253.75C318.8 251.862 322.897 252.828 324.988 253.418L325.031 284.672C322.532 285.38 320.602 285.423 318.199 285.026L317.373 273.121L294.592 272.831C293.197 276.467 292.875 280.082 293.187 284.608C292.511 285.316 286.848 285.97 286.644 284.201C285.657 275.33 286.011 266.857 286.354 258.03C286.719 248.548 295.289 242.166 304.416 242.177L365.435 242.252C368.192 248.548 363.065 251.723 359.386 255.573C354.388 260.808 350.891 266.932 345.013 271.265C343.523 272.359 343.04 275.534 341.077 277.25L365.618 277.829C366.218 280.189 366.261 282.452 365.639 285.219C360.791 284.876 342.557 286.292 338.256 285.884L329.633 285.069C327.788 280.007 330.459 276.961 333.601 273.636C340.841 265.956 347.319 258.405 354.291 250.05L303.751 249.835V249.824Z" fill="#1F2353"/>
<path d="M450.619 264.894C450.866 274.987 444.012 284.555 432.857 285.423C422.839 286.206 411.738 280.983 411.535 270.193L411.116 249.095C404.745 248.462 398.739 248.312 392.475 249.031L391.885 284.276C391.863 285.799 386.833 285.563 385.203 284.994L384.624 249.846C382.843 246.896 372.268 250.254 370.219 247.647C369.296 246.478 369.414 242.166 371.324 242.166L418.785 242.145V266.31C418.785 273.55 423.279 277.561 430.326 277.669C436.847 277.765 442.532 274.987 442.725 267.576C442.918 260.164 442.081 250.994 443.025 243.089C443.24 241.287 450.051 241.694 450.094 243.518L450.619 264.883V264.894Z" fill="#5F9CD0"/>
<path d="M450.04 60V224.49H286.14V60H450.04ZM398.567 86.1279C360.544 97.819 376.547 98.173 337.881 86.1387L337.752 110.325L398.395 110.411C399.007 102.335 398.9 95.2448 398.567 86.1279ZM398.685 128.806C390.072 128.859 384.023 128.463 377.459 129.245L376.922 165.145C376.869 168.395 371.624 172.352 368.32 172.502C365.274 172.642 359.59 168.362 359.525 165.123L358.71 128.795L337.816 128.924L337.688 161.112C337.655 168.148 338.642 176.557 344.241 181.373C350.988 187.165 358.539 197.011 367.548 197.569C376.333 198.105 383.519 188.344 390.115 183.968C403.64 174.991 397.398 144.186 398.685 128.816V128.806Z" fill="#1F2353"/>
<path d="M398.685 128.806C397.398 144.176 403.64 174.969 390.115 183.958C383.519 188.334 376.333 198.094 367.548 197.558C358.539 197.011 350.988 187.165 344.241 181.362C338.642 176.557 337.666 168.148 337.688 161.101L337.816 128.913L358.71 128.784L359.525 165.112C359.6 168.352 365.285 172.631 368.32 172.492C371.624 172.342 376.869 168.384 376.923 165.134L377.459 129.235C384.023 128.452 390.072 128.849 398.685 128.795V128.806Z" fill="#FEFFFF"/>
<path d="M398.567 86.1279C398.9 95.2448 399.007 102.345 398.395 110.411L337.752 110.325L337.881 86.1387C376.558 98.173 360.544 97.819 398.567 86.1279Z" fill="#FEFFFF"/>
</g>
<defs>
<clipPath id="clip0_10_6">
<rect width="736.63" height="345.35" fill="white"/>
</clipPath>
</defs>
</svg>
